<mxfile host="app.diagrams.net" modified="2021-01-27T02:25:21.483Z" agent="5.0 (Windows NT 10.0; Win64; x64) AppleWebKit/537.36 (KHTML, like Gecko) Chrome/88.0.4324.104 Safari/537.36" etag="IG19OkrtqAQI37-7QIZZ" version="14.2.7" type="github">
  <diagram id="C5RBs43oDa-KdzZeNtuy" name="Page-1">
    <mxGraphModel dx="1422" dy="794" grid="1" gridSize="10" guides="1" tooltips="1" connect="1" arrows="1" fold="1" page="1" pageScale="1" pageWidth="827" pageHeight="1169" math="0" shadow="0">
      <root>
        <mxCell id="WIyWlLk6GJQsqaUBKTNV-0" />
        <mxCell id="WIyWlLk6GJQsqaUBKTNV-1" parent="WIyWlLk6GJQsqaUBKTNV-0" />
        <mxCell id="WIyWlLk6GJQsqaUBKTNV-2" value="" style="rounded=0;html=1;jettySize=auto;orthogonalLoop=1;fontSize=11;endArrow=block;endFill=0;endSize=8;strokeWidth=1;shadow=0;labelBackgroundColor=none;edgeStyle=orthogonalEdgeStyle;" parent="WIyWlLk6GJQsqaUBKTNV-1" source="WIyWlLk6GJQsqaUBKTNV-3" edge="1">
          <mxGeometry relative="1" as="geometry">
            <mxPoint x="220" y="170" as="targetPoint" />
          </mxGeometry>
        </mxCell>
        <mxCell id="WIyWlLk6GJQsqaUBKTNV-3" value="创建API编排" style="rounded=1;whiteSpace=wrap;html=1;fontSize=12;glass=0;strokeWidth=1;shadow=0;" parent="WIyWlLk6GJQsqaUBKTNV-1" vertex="1">
          <mxGeometry x="160" y="80" width="120" height="40" as="geometry" />
        </mxCell>
        <mxCell id="x5veIcxIF9MqgdUAbz0h-2" value="" style="edgeStyle=orthogonalEdgeStyle;rounded=0;orthogonalLoop=1;jettySize=auto;html=1;" edge="1" parent="WIyWlLk6GJQsqaUBKTNV-1" source="x5veIcxIF9MqgdUAbz0h-0" target="x5veIcxIF9MqgdUAbz0h-1">
          <mxGeometry relative="1" as="geometry" />
        </mxCell>
        <mxCell id="x5veIcxIF9MqgdUAbz0h-9" style="edgeStyle=orthogonalEdgeStyle;rounded=0;orthogonalLoop=1;jettySize=auto;html=1;exitX=1;exitY=0.5;exitDx=0;exitDy=0;" edge="1" parent="WIyWlLk6GJQsqaUBKTNV-1" source="x5veIcxIF9MqgdUAbz0h-0" target="x5veIcxIF9MqgdUAbz0h-5">
          <mxGeometry relative="1" as="geometry" />
        </mxCell>
        <mxCell id="x5veIcxIF9MqgdUAbz0h-0" value="跳转到画布" style="rounded=1;whiteSpace=wrap;html=1;" vertex="1" parent="WIyWlLk6GJQsqaUBKTNV-1">
          <mxGeometry x="160" y="170" width="120" height="60" as="geometry" />
        </mxCell>
        <mxCell id="x5veIcxIF9MqgdUAbz0h-4" value="" style="edgeStyle=orthogonalEdgeStyle;rounded=0;orthogonalLoop=1;jettySize=auto;html=1;" edge="1" parent="WIyWlLk6GJQsqaUBKTNV-1" source="x5veIcxIF9MqgdUAbz0h-1" target="x5veIcxIF9MqgdUAbz0h-3">
          <mxGeometry relative="1" as="geometry" />
        </mxCell>
        <mxCell id="x5veIcxIF9MqgdUAbz0h-8" style="edgeStyle=orthogonalEdgeStyle;rounded=0;orthogonalLoop=1;jettySize=auto;html=1;" edge="1" parent="WIyWlLk6GJQsqaUBKTNV-1" source="x5veIcxIF9MqgdUAbz0h-1" target="x5veIcxIF9MqgdUAbz0h-6">
          <mxGeometry relative="1" as="geometry" />
        </mxCell>
        <mxCell id="x5veIcxIF9MqgdUAbz0h-1" value="拖动已有API到画布" style="whiteSpace=wrap;html=1;rounded=1;" vertex="1" parent="WIyWlLk6GJQsqaUBKTNV-1">
          <mxGeometry x="160" y="270" width="120" height="60" as="geometry" />
        </mxCell>
        <mxCell id="x5veIcxIF9MqgdUAbz0h-10" style="edgeStyle=orthogonalEdgeStyle;rounded=0;orthogonalLoop=1;jettySize=auto;html=1;" edge="1" parent="WIyWlLk6GJQsqaUBKTNV-1" source="x5veIcxIF9MqgdUAbz0h-3">
          <mxGeometry relative="1" as="geometry">
            <mxPoint x="400" y="410" as="targetPoint" />
          </mxGeometry>
        </mxCell>
        <mxCell id="x5veIcxIF9MqgdUAbz0h-3" value="创建API" style="whiteSpace=wrap;html=1;rounded=1;" vertex="1" parent="WIyWlLk6GJQsqaUBKTNV-1">
          <mxGeometry x="160" y="380" width="120" height="60" as="geometry" />
        </mxCell>
        <mxCell id="x5veIcxIF9MqgdUAbz0h-7" value="" style="edgeStyle=orthogonalEdgeStyle;rounded=0;orthogonalLoop=1;jettySize=auto;html=1;" edge="1" parent="WIyWlLk6GJQsqaUBKTNV-1" source="x5veIcxIF9MqgdUAbz0h-5" target="x5veIcxIF9MqgdUAbz0h-6">
          <mxGeometry relative="1" as="geometry" />
        </mxCell>
        <mxCell id="x5veIcxIF9MqgdUAbz0h-5" value="前端：&lt;br&gt;左侧API列表&lt;br&gt;中间画布&lt;br&gt;右侧配置栏" style="rounded=1;whiteSpace=wrap;html=1;" vertex="1" parent="WIyWlLk6GJQsqaUBKTNV-1">
          <mxGeometry x="400" y="170" width="120" height="60" as="geometry" />
        </mxCell>
        <mxCell id="x5veIcxIF9MqgdUAbz0h-6" value="前端支持配置单个API节点的参数，包括：&lt;br&gt;输入字段，输出字段&lt;br&gt;API参数" style="rounded=1;whiteSpace=wrap;html=1;" vertex="1" parent="WIyWlLk6GJQsqaUBKTNV-1">
          <mxGeometry x="400" y="270" width="120" height="60" as="geometry" />
        </mxCell>
        <mxCell id="x5veIcxIF9MqgdUAbz0h-11" value="前端传json到后台&lt;br&gt;后台转为bpmn格式&lt;br&gt;创建workflow" style="rounded=1;whiteSpace=wrap;html=1;" vertex="1" parent="WIyWlLk6GJQsqaUBKTNV-1">
          <mxGeometry x="400" y="380" width="120" height="60" as="geometry" />
        </mxCell>
      </root>
    </mxGraphModel>
  </diagram>
</mxfile>
